<svg width="289" height="100" viewBox="0 0 289 100" fill="none" xmlns="http://www.w3.org/2000/svg">
<path d="M49.9978 66C52.0812 66 53.9041 65.625 55.4666 64.875C57.0291 64.125 58.3624 63.1354 59.4666 61.9062C58.1332 61.6562 56.9041 61.2188 55.7791 60.5938C54.6749 59.9688 53.7166 59.1979 52.9041 58.2812C52.0916 57.3438 51.4562 56.2917 50.9978 55.125C50.5395 53.9375 50.3103 52.6562 50.3103 51.2812C50.3103 49.9271 50.5499 48.6875 51.0291 47.5625C51.5082 46.4167 52.1541 45.4375 52.9666 44.625C53.7791 43.7917 54.7166 43.1458 55.7791 42.6875C56.8624 42.2292 57.9874 42 59.1541 42C60.2374 42 61.2791 42.1979 62.2791 42.5938C63.2999 42.9896 64.1957 43.5729 64.9666 44.3438C65.7374 45.0938 66.352 46.0417 66.8103 47.1875C67.2895 48.3125 67.5291 49.6146 67.5291 51.0938C67.5291 52.5938 67.2062 54.1667 66.5603 55.8125C65.9145 57.4583 64.9978 59.0208 63.8103 60.5C65.0603 60.3333 66.1541 59.9792 67.0916 59.4375C68.0291 58.8958 68.8416 58.25 69.5291 57.5C70.2374 56.75 70.8416 55.9479 71.3416 55.0938C71.8624 54.2188 72.3207 53.375 72.7166 52.5625L73.0291 51.9062L74.3103 52.875L73.9978 53.5312C73.352 54.8229 72.6332 56 71.8416 57.0625C71.0499 58.125 70.1749 59.0312 69.2166 59.7812C68.2582 60.5312 67.2062 61.1146 66.0603 61.5312C64.9145 61.9271 63.6749 62.1354 62.3416 62.1562C60.7374 63.7812 58.8103 65.0938 56.5603 66.0938C54.3103 67.0938 51.7999 67.5938 49.0291 67.5938C46.5916 67.5938 44.3728 67.1875 42.3728 66.375C40.3728 65.5625 38.6541 64.4583 37.2166 63.0625C35.7999 61.6667 34.6957 60.0417 33.9041 58.1875C33.1124 56.3333 32.7166 54.3542 32.7166 52.25C32.7166 49.875 33.0812 47.8125 33.8103 46.0625C34.5603 44.2917 35.5187 42.7812 36.6853 41.5312C37.852 40.2812 39.1437 39.25 40.5603 38.4375C41.9978 37.6042 43.4145 36.9375 44.8103 36.4375C43.477 35.9375 42.2999 35.3021 41.2791 34.5312C40.2582 33.7604 39.3937 32.9062 38.6853 31.9688C37.9978 31.0104 37.4666 30 37.0916 28.9375C36.7374 27.8542 36.5603 26.7708 36.5603 25.6875C36.5603 23.7292 36.9666 22 37.7791 20.5C38.5916 18.9792 39.6437 17.7083 40.9353 16.6875C42.2478 15.6458 43.7166 14.8646 45.3416 14.3438C46.9874 13.8021 48.6437 13.5312 50.3103 13.5312C51.6853 13.5312 52.9978 13.6979 54.2478 14.0312C55.5187 14.3646 56.6228 14.8333 57.5603 15.4375C58.0603 15.3333 58.5812 15.2604 59.1228 15.2188C59.6853 15.1562 60.2687 15.125 60.8728 15.125V16.4062C60.5187 16.4062 60.1853 16.4167 59.8728 16.4375C59.5603 16.4583 59.2582 16.4896 58.9666 16.5312C59.5707 17.1146 60.0395 17.7708 60.3728 18.5C60.7062 19.2083 60.8728 20 60.8728 20.875C60.8728 21.6875 60.7374 22.4271 60.4666 23.0938C60.2166 23.7604 59.852 24.3333 59.3728 24.8125C58.9145 25.2917 58.3728 25.6667 57.7478 25.9375C57.1228 26.1875 56.4562 26.3125 55.7478 26.3125C54.9562 26.3125 54.2478 26.1875 53.6228 25.9375C53.0187 25.6875 52.5082 25.3542 52.0916 24.9375C51.6749 24.5208 51.352 24.0312 51.1228 23.4688C50.8937 22.9062 50.7791 22.3229 50.7791 21.7188C50.7791 21.1979 50.8624 20.6667 51.0291 20.125C51.2166 19.5833 51.4874 19.0625 51.8416 18.5625C52.2166 18.0625 52.6853 17.5938 53.2478 17.1562C53.8312 16.7188 54.5187 16.3438 55.3103 16.0312C54.5187 15.6979 53.6853 15.4688 52.8103 15.3438C51.9562 15.1979 51.227 15.125 50.6228 15.125C49.1645 15.125 47.8728 15.3854 46.7478 15.9062C45.6437 16.4062 44.7166 17.125 43.9666 18.0625C43.2166 19 42.6437 20.1354 42.2478 21.4688C41.8728 22.8021 41.6853 24.2917 41.6853 25.9375C41.6853 27 41.8103 28.0521 42.0603 29.0938C42.3103 30.1146 42.6749 31.0625 43.1541 31.9375C43.6332 32.7917 44.2374 33.5417 44.9666 34.1875C45.6957 34.8125 46.5395 35.2812 47.4978 35.5938C48.3937 35.3646 49.1957 35.2083 49.9041 35.125C50.6124 35.0208 51.1749 34.9688 51.5916 34.9688C52.2999 34.9688 52.8103 35.0833 53.1228 35.3125C53.4353 35.5417 53.5916 35.8333 53.5916 36.1875C53.5916 36.3542 53.5603 36.5208 53.4978 36.6875C53.4353 36.8333 53.3207 36.9688 53.1541 37.0938C52.9874 37.2188 52.7478 37.3229 52.4353 37.4062C52.1437 37.4896 51.7582 37.5312 51.2791 37.5312C50.6749 37.5312 50.0812 37.5104 49.4978 37.4688C48.9145 37.4271 48.352 37.3542 47.8103 37.25C46.4353 37.6042 45.1749 38.1979 44.0291 39.0312C42.8832 39.8646 41.8937 40.9167 41.0603 42.1875C40.2478 43.4583 39.6124 44.9375 39.1541 46.625C38.6957 48.3125 38.4666 50.1875 38.4666 52.25C38.4666 54.625 38.7895 56.6771 39.4353 58.4062C40.0812 60.1354 40.9457 61.5625 42.0291 62.6875C43.1124 63.8125 44.3416 64.6458 45.7166 65.1875C47.0916 65.7292 48.5187 66 49.9978 66ZM63.4353 51.5938C63.4353 50.3021 63.2791 49.1875 62.9666 48.25C62.6749 47.3125 62.2791 46.5417 61.7791 45.9375C61.2791 45.3125 60.7062 44.8542 60.0603 44.5625C59.4145 44.2708 58.7478 44.125 58.0603 44.125C57.3312 44.125 56.6228 44.2917 55.9353 44.625C55.2478 44.9375 54.6228 45.3958 54.0603 46C53.5187 46.6042 53.0812 47.3542 52.7478 48.25C52.4145 49.1458 52.2478 50.1562 52.2478 51.2812C52.2478 52.5312 52.4457 53.6875 52.8416 54.75C53.2582 55.7917 53.8312 56.7188 54.5603 57.5312C55.3103 58.3229 56.1957 58.9792 57.2166 59.5C58.2582 60 59.3937 60.3333 60.6228 60.5C61.5812 59.125 62.2895 57.6562 62.7478 56.0938C63.2062 54.5312 63.4353 53.0312 63.4353 51.5938ZM59.2791 20.875C59.2791 19.9792 59.0603 19.2083 58.6228 18.5625C58.1853 17.9167 57.6332 17.3646 56.9666 16.9062C56.1541 17.1354 55.4562 17.4271 54.8728 17.7812C54.2895 18.1354 53.8103 18.5312 53.4353 18.9688C53.0812 19.3854 52.8103 19.8333 52.6228 20.3125C52.4562 20.7708 52.3728 21.2188 52.3728 21.6562C52.3728 22.4896 52.6645 23.2083 53.2478 23.8125C53.852 24.4167 54.6853 24.7188 55.7478 24.7188C56.8728 24.7188 57.7374 24.3646 58.3416 23.6562C58.9666 22.9271 59.2791 22 59.2791 20.875ZM85.0916 42.5625C84.5082 42.5625 83.852 42.8229 83.1228 43.3438C82.4145 43.8646 81.6957 44.5417 80.9666 45.375C80.2374 46.1875 79.5291 47.1042 78.8416 48.125C78.1749 49.1458 77.5916 50.1562 77.0916 51.1562C77.0291 52.9896 76.9666 54.9896 76.9041 57.1562C76.8624 59.3229 76.8416 61.6354 76.8416 64.0938C76.8416 64.4062 76.6957 64.6875 76.4041 64.9375C76.1332 65.1667 75.8103 65.3646 75.4353 65.5312C75.0603 65.6771 74.6749 65.7917 74.2791 65.875C73.8832 65.9583 73.5603 66 73.3103 66C72.9978 66 72.7062 65.9062 72.4353 65.7188C72.1645 65.5312 72.0291 65.1146 72.0291 64.4688C72.0291 64.1562 72.0603 63.7708 72.1228 63.3125C72.1853 62.8333 72.2687 62.3229 72.3728 61.7812C72.4562 61.2396 72.5603 60.6875 72.6853 60.125C72.7895 59.5417 72.8937 59 72.9978 58.5V43.2188C72.9978 42.8021 73.0082 42.4792 73.0291 42.25C73.0291 42 73.0603 41.8125 73.1228 41.6875C73.2478 41.3958 73.4666 41.1667 73.7791 41C74.0916 40.8333 74.4249 40.7083 74.7791 40.625C75.1332 40.5208 75.477 40.4583 75.8103 40.4375C76.1437 40.4167 76.4041 40.4062 76.5916 40.4062C76.9457 40.4062 77.1853 40.5 77.3103 40.6875C77.4562 40.875 77.5291 41.2083 77.5291 41.6875C77.5291 41.625 77.477 42.1354 77.3728 43.2188C77.2895 44.3021 77.2166 45.8542 77.1541 47.875C77.7791 46.8958 78.4562 45.9583 79.1853 45.0625C79.9145 44.1667 80.6749 43.375 81.4666 42.6875C82.2582 42 83.0707 41.4479 83.9041 41.0312C84.7582 40.6146 85.6228 40.4062 86.4978 40.4062C88.0603 40.4062 89.2062 40.9062 89.9353 41.9062C90.6645 42.8854 91.0291 44.2188 91.0291 45.9062C91.0291 46.9688 90.9562 48.1562 90.8103 49.4688C90.6853 50.7604 90.5291 52.0833 90.3416 53.4375C90.1749 54.7708 90.0187 56.0833 89.8728 57.375C89.7478 58.6458 89.6853 59.8125 89.6853 60.875C89.6853 62.25 90.1124 62.9375 90.9666 62.9375C91.2374 62.9375 91.5499 62.8021 91.9041 62.5312C92.2791 62.2396 92.7374 61.7083 93.2791 60.9375C93.8416 60.1667 94.5082 59.1146 95.2791 57.7812C96.0499 56.4271 96.9666 54.6875 98.0291 52.5625L98.3416 51.9062L99.6228 52.875L99.3103 53.5312C98.0603 56.0312 96.9457 58.0833 95.9666 59.6875C95.0082 61.2917 94.1332 62.5625 93.3416 63.5C92.5499 64.4375 91.8103 65.0938 91.1228 65.4688C90.4353 65.8229 89.7478 66 89.0603 66C88.6228 66 88.1853 65.9375 87.7478 65.8125C87.3103 65.6875 86.9249 65.4688 86.5916 65.1562C86.2582 64.8438 85.9874 64.4271 85.7791 63.9062C85.5707 63.3646 85.4666 62.6771 85.4666 61.8438C85.4666 60.5938 85.5499 59.1875 85.7166 57.625C85.8832 56.0625 86.0707 54.5 86.2791 52.9375C86.4874 51.375 86.6749 49.9062 86.8416 48.5312C87.0082 47.1354 87.0916 46 87.0916 45.125C87.0916 44.3542 86.9249 43.7396 86.5916 43.2812C86.2582 42.8021 85.7582 42.5625 85.0916 42.5625ZM117.31 58.25C117.31 59.4375 117.414 60.4375 117.623 61.25C117.831 62.0625 118.196 62.4688 118.717 62.4688C119.029 62.4688 119.362 62.3229 119.717 62.0312C120.092 61.7188 120.519 61.2188 120.998 60.5312C121.477 59.8438 122.019 58.9583 122.623 57.875C123.248 56.7708 123.956 55.4271 124.748 53.8438L125.685 51.9062L126.967 52.875L126.029 54.8125C125.154 56.5625 124.331 58.1354 123.56 59.5312C122.81 60.9062 122.092 62.0729 121.404 63.0312C120.717 63.9896 120.039 64.7292 119.373 65.25C118.727 65.75 118.081 66 117.435 66C116.748 66 116.164 65.8125 115.685 65.4375C115.227 65.0625 114.842 64.5521 114.529 63.9062C114.217 63.2396 113.977 62.4792 113.81 61.625C113.644 60.75 113.529 59.8229 113.467 58.8438C112.967 59.8438 112.414 60.7812 111.81 61.6562C111.206 62.5104 110.571 63.2604 109.904 63.9062C109.258 64.5521 108.581 65.0625 107.873 65.4375C107.164 65.8125 106.456 66 105.748 66C104.706 66 103.696 65.7812 102.717 65.3438C101.737 64.9062 100.862 64.2396 100.092 63.3438C99.3416 62.4479 98.7374 61.3229 98.2791 59.9688C97.8207 58.5938 97.5916 56.9792 97.5916 55.125C97.5916 52.9583 97.8728 50.9792 98.4353 49.1875C98.9978 47.375 99.7582 45.8229 100.717 44.5312C101.675 43.2188 102.779 42.2083 104.029 41.5C105.279 40.7708 106.592 40.4062 107.967 40.4062C108.8 40.4062 109.571 40.5938 110.279 40.9688C110.987 41.3438 111.602 41.8021 112.123 42.3438C112.664 42.8646 113.112 43.4271 113.467 44.0312C113.821 44.6146 114.06 45.1146 114.185 45.5312L114.56 42.5C114.602 42.1042 114.789 41.7708 115.123 41.5C115.477 41.2292 115.862 41.0208 116.279 40.875C116.696 40.7083 117.102 40.5938 117.498 40.5312C117.894 40.4479 118.175 40.4062 118.342 40.4062C118.592 40.4062 118.758 40.4479 118.842 40.5312C118.925 40.6146 118.967 40.7812 118.967 41.0312C118.967 41.3438 118.873 41.9792 118.685 42.9375C118.519 43.875 118.331 45.0833 118.123 46.5625C117.935 48.0208 117.748 49.7396 117.56 51.7188C117.394 53.6979 117.31 55.875 117.31 58.25ZM113.873 50C113.873 49.0417 113.727 48.1042 113.435 47.1875C113.144 46.25 112.748 45.4271 112.248 44.7188C111.748 43.9896 111.164 43.4062 110.498 42.9688C109.852 42.5312 109.164 42.3125 108.435 42.3125C107.539 42.3125 106.696 42.5729 105.904 43.0938C105.133 43.5938 104.456 44.3125 103.873 45.25C103.31 46.1667 102.862 47.2812 102.529 48.5938C102.196 49.8854 102.029 51.3125 102.029 52.875C102.029 56 102.519 58.3854 103.498 60.0312C104.477 61.6562 105.779 62.4688 107.404 62.4688C108.112 62.4688 108.842 62.1875 109.592 61.625C110.362 61.0417 111.06 60.2188 111.685 59.1562C112.331 58.0729 112.852 56.7604 113.248 55.2188C113.664 53.6771 113.873 51.9375 113.873 50ZM135.873 42.625C135.269 42.625 134.685 42.8438 134.123 43.2812C133.581 43.6979 133.06 44.2812 132.56 45.0312C132.06 45.7604 131.571 46.625 131.092 47.625C130.633 48.6042 130.175 49.6562 129.717 50.7812V51.1562C129.654 52.9896 129.592 54.9375 129.529 57C129.487 59.0625 129.467 61.3125 129.467 63.75C129.467 64.1667 129.321 64.5208 129.029 64.8125C128.758 65.0833 128.435 65.3125 128.06 65.5C127.685 65.6667 127.3 65.7917 126.904 65.875C126.508 65.9583 126.185 66 125.935 66C125.623 66 125.331 65.9062 125.06 65.7188C124.789 65.5312 124.654 65.1146 124.654 64.4688C124.654 64.1562 124.685 63.7708 124.748 63.3125C124.81 62.8333 124.894 62.3229 124.998 61.7812C125.081 61.2396 125.185 60.6875 125.31 60.125C125.414 59.5417 125.519 59 125.623 58.5C125.623 56.7292 125.623 55.1354 125.623 53.7188C125.602 52.3021 125.592 51.0417 125.592 49.9375C125.592 48.8333 125.592 47.8646 125.592 47.0312C125.571 46.1979 125.56 45.4792 125.56 44.875C125.56 43.875 125.581 43.1458 125.623 42.6875C125.644 42.2083 125.685 41.875 125.748 41.6875C125.852 41.3958 126.039 41.1667 126.31 41C126.602 40.8333 126.904 40.7083 127.217 40.625C127.529 40.5208 127.842 40.4583 128.154 40.4375C128.467 40.4167 128.706 40.4062 128.873 40.4062C129.269 40.4062 129.529 40.5208 129.654 40.75C129.779 40.9792 129.842 41.3333 129.842 41.8125C129.842 42.8958 129.842 43.875 129.842 44.75C129.842 45.625 129.821 46.5 129.779 47.375C130.175 46.4375 130.633 45.5521 131.154 44.7188C131.696 43.8646 132.289 43.125 132.935 42.5C133.581 41.8542 134.258 41.3438 134.967 40.9688C135.696 40.5938 136.446 40.4062 137.217 40.4062C138.154 40.4062 138.925 40.6042 139.529 41C140.154 41.375 140.644 41.9062 140.998 42.5938C141.373 43.2812 141.644 44.0938 141.81 45.0312C141.998 45.9479 142.123 46.9479 142.185 48.0312C142.769 46.9688 143.394 45.9792 144.06 45.0625C144.748 44.125 145.467 43.3125 146.217 42.625C146.987 41.9375 147.789 41.3958 148.623 41C149.477 40.6042 150.362 40.4062 151.279 40.4062C152.862 40.4062 154.019 40.9062 154.748 41.9062C155.477 42.8854 155.842 44.2188 155.842 45.9062C155.842 46.9688 155.758 48.1562 155.592 49.4688C155.425 50.7812 155.248 52.1146 155.06 53.4688C154.873 54.8021 154.696 56.1146 154.529 57.4062C154.362 58.6979 154.279 59.875 154.279 60.9375C154.279 62.2292 154.602 62.875 155.248 62.875C155.581 62.875 155.946 62.6771 156.342 62.2812C156.737 61.8646 157.185 61.2396 157.685 60.4062C158.206 59.5521 158.8 58.4792 159.467 57.1875C160.154 55.8958 160.946 54.3542 161.842 52.5625L162.154 51.9062L163.435 52.875L163.123 53.5312C161.894 55.9896 160.842 58.0208 159.967 59.625C159.112 61.2292 158.342 62.5104 157.654 63.4688C156.967 64.4062 156.31 65.0625 155.685 65.4375C155.081 65.8125 154.404 66 153.654 66C153.217 66 152.789 65.9375 152.373 65.8125C151.956 65.6875 151.592 65.4688 151.279 65.1562C150.967 64.8438 150.717 64.4271 150.529 63.9062C150.342 63.3646 150.248 62.6771 150.248 61.8438C150.248 60.5938 150.331 59.1875 150.498 57.625C150.664 56.0625 150.852 54.5 151.06 52.9375C151.269 51.375 151.456 49.9062 151.623 48.5312C151.789 47.1354 151.873 46 151.873 45.125C151.873 44.3542 151.706 43.7396 151.373 43.2812C151.039 42.8021 150.539 42.5625 149.873 42.5625C149.206 42.5625 148.508 42.8229 147.779 43.3438C147.071 43.8646 146.373 44.5417 145.685 45.375C145.019 46.1875 144.383 47.1042 143.779 48.125C143.196 49.1458 142.685 50.1562 142.248 51.1562C142.248 53.3438 142.227 55.2604 142.185 56.9062C142.144 58.5312 142.081 59.9062 141.998 61.0312C141.935 62.1562 141.842 63.0521 141.717 63.7188C141.592 64.3646 141.456 64.8021 141.31 65.0312C141.206 65.1771 141.029 65.3125 140.779 65.4375C140.529 65.5625 140.248 65.6667 139.935 65.75C139.644 65.8333 139.352 65.8958 139.06 65.9375C138.789 65.9792 138.581 66 138.435 66C138.102 66 137.81 65.9062 137.56 65.7188C137.331 65.5104 137.217 65.1146 137.217 64.5312C137.217 64.2604 137.237 63.8958 137.279 63.4375C137.342 62.9792 137.414 62.4688 137.498 61.9062C137.581 61.3438 137.675 60.7396 137.779 60.0938C137.883 59.4479 137.987 58.7917 138.092 58.125C138.112 57.5 138.133 56.8021 138.154 56.0312C138.175 55.2604 138.196 54.5 138.217 53.75C138.237 52.9792 138.248 52.25 138.248 51.5625C138.269 50.8542 138.279 50.25 138.279 49.75C138.279 48.6875 138.248 47.7188 138.185 46.8438C138.123 45.9688 137.998 45.2188 137.81 44.5938C137.644 43.9688 137.404 43.4896 137.092 43.1562C136.779 42.8021 136.373 42.625 135.873 42.625ZM188.373 52.875L188.029 53.5312C187.321 54.9479 186.373 56.0833 185.185 56.9375C184.019 57.7708 182.748 58.3125 181.373 58.5625C180.998 59.625 180.508 60.6146 179.904 61.5312C179.321 62.4271 178.644 63.2083 177.873 63.875C177.123 64.5417 176.269 65.0625 175.31 65.4375C174.373 65.8125 173.352 66 172.248 66C170.644 66 169.196 65.6667 167.904 65C166.633 64.3125 165.55 63.3958 164.654 62.25C163.758 61.0833 163.071 59.7292 162.592 58.1875C162.112 56.625 161.873 54.9583 161.873 53.1875C161.873 51.6458 162.05 50.25 162.404 49C162.758 47.7292 163.206 46.6042 163.748 45.625C164.289 44.625 164.894 43.7604 165.56 43.0312C166.227 42.2812 166.883 41.6667 167.529 41.1875C168.175 40.7083 168.758 40.3542 169.279 40.125C169.821 39.875 170.227 39.75 170.498 39.75L170.904 40.8438C170.05 41.4688 169.289 42.3438 168.623 43.4688C168.039 44.4271 167.508 45.6979 167.029 47.2812C166.571 48.8646 166.342 50.8333 166.342 53.1875C166.342 54.625 166.477 56.0208 166.748 57.375C167.019 58.7292 167.414 59.9271 167.935 60.9688C168.456 62.0104 169.092 62.8438 169.842 63.4688C170.612 64.0938 171.477 64.4062 172.435 64.4062C173.748 64.4062 174.831 63.8854 175.685 62.8438C176.56 61.7812 177.206 60.3333 177.623 58.5C176.539 58.2708 175.508 57.8438 174.529 57.2188C173.55 56.5938 172.685 55.8229 171.935 54.9062C171.185 53.9688 170.581 52.8958 170.123 51.6875C169.685 50.4792 169.467 49.1667 169.467 47.75C169.467 46.5833 169.612 45.5625 169.904 44.6875C170.217 43.7917 170.623 43.0521 171.123 42.4688C171.623 41.8646 172.196 41.4167 172.842 41.125C173.508 40.8125 174.206 40.6562 174.935 40.6562C175.789 40.6562 176.664 40.9062 177.56 41.4062C178.456 41.8854 179.269 42.6146 179.998 43.5938C180.727 44.5521 181.321 45.7604 181.779 47.2188C182.237 48.6771 182.467 50.375 182.467 52.3125C182.467 53.0417 182.425 53.7604 182.342 54.4688C182.258 55.1771 182.133 55.8646 181.967 56.5312C182.967 56.2396 183.873 55.7708 184.685 55.125C185.519 54.4792 186.206 53.625 186.748 52.5625L187.092 51.9062L188.373 52.875ZM171.529 47.5C171.529 48.7292 171.696 49.8646 172.029 50.9062C172.383 51.9271 172.852 52.8333 173.435 53.625C174.019 54.3958 174.696 55.0417 175.467 55.5625C176.237 56.0833 177.06 56.4479 177.935 56.6562C178.039 56.0729 178.102 55.4688 178.123 54.8438C178.164 54.1979 178.185 53.5417 178.185 52.875C178.185 51.3958 178.071 50.0625 177.842 48.875C177.612 47.6667 177.31 46.6458 176.935 45.8125C176.56 44.9583 176.123 44.3021 175.623 43.8438C175.123 43.3854 174.612 43.1562 174.092 43.1562C173.383 43.1562 172.779 43.5417 172.279 44.3125C171.779 45.0625 171.529 46.125 171.529 47.5ZM186.81 52.5625L187.123 51.9062C187.435 51.2812 187.717 50.6354 187.967 49.9688C188.237 49.3021 188.467 48.6771 188.654 48.0938C188.842 47.4896 188.987 46.9583 189.092 46.5C189.196 46.0208 189.269 45.6562 189.31 45.4062C188.769 45.3438 188.248 45.2083 187.748 45C187.248 44.7917 186.81 44.5104 186.435 44.1562C186.06 43.8021 185.769 43.3854 185.56 42.9062C185.331 42.4271 185.217 41.8854 185.217 41.2812C185.217 40.8021 185.3 40.375 185.467 40C185.633 39.625 185.862 39.3125 186.154 39.0625C186.425 38.8125 186.737 38.625 187.092 38.5C187.425 38.3542 187.779 38.2812 188.154 38.2812C188.654 38.2812 189.092 38.3854 189.467 38.5938C189.842 38.8021 190.154 39.0833 190.404 39.4375C190.654 39.7708 190.842 40.1667 190.967 40.625C191.092 41.0625 191.154 41.5208 191.154 42C191.737 42 192.362 41.9167 193.029 41.75C193.717 41.5833 194.404 41.4062 195.092 41.2188C195.779 41.0104 196.456 40.8229 197.123 40.6562C197.789 40.4896 198.404 40.4062 198.967 40.4062C199.446 40.4062 199.831 40.5104 200.123 40.7188C200.414 40.9062 200.56 41.2292 200.56 41.6875C200.56 42.0208 200.456 42.5729 200.248 43.3438C200.06 44.1146 199.821 45.0104 199.529 46.0312C199.237 47.0521 198.914 48.1667 198.56 49.375C198.227 50.5625 197.914 51.7708 197.623 53C197.331 54.2083 197.081 55.3854 196.873 56.5312C196.685 57.6771 196.592 58.6979 196.592 59.5938C196.592 60.7188 196.717 61.4792 196.967 61.875C197.217 62.2708 197.664 62.4688 198.31 62.4688C198.581 62.4688 198.914 62.3542 199.31 62.125C199.727 61.875 200.227 61.4062 200.81 60.7188C201.394 60.0104 202.081 59.0104 202.873 57.7188C203.685 56.4062 204.623 54.6875 205.685 52.5625L205.998 51.9062L207.279 52.875L206.967 53.5312C205.717 56.0312 204.602 58.0833 203.623 59.6875C202.644 61.2917 201.737 62.5625 200.904 63.5C200.092 64.4375 199.321 65.0938 198.592 65.4688C197.862 65.8229 197.133 66 196.404 66C195.175 66 194.175 65.5312 193.404 64.5938C192.633 63.6562 192.248 62.2083 192.248 60.25C192.248 59.1875 192.394 58.0833 192.685 56.9375C192.977 55.7917 193.342 54.6562 193.779 53.5312C194.217 52.3854 194.706 51.2604 195.248 50.1562C195.789 49.0521 196.3 48.0104 196.779 47.0312C197.279 46.0312 197.727 45.1042 198.123 44.25C198.519 43.3958 198.8 42.6458 198.967 42L198.779 41.8125C198.446 41.8125 197.998 41.9896 197.435 42.3438C196.873 42.6979 196.237 43.1042 195.529 43.5625C194.842 44 194.102 44.4167 193.31 44.8125C192.519 45.2083 191.717 45.4479 190.904 45.5312C190.862 45.8229 190.769 46.25 190.623 46.8125C190.498 47.375 190.321 48 190.092 48.6875C189.862 49.375 189.602 50.0833 189.31 50.8125C189.019 51.5417 188.717 52.2292 188.404 52.875L188.092 53.5312L186.81 52.5625ZM188.342 40.0312C188.154 40.0312 187.998 40.0938 187.873 40.2188C187.748 40.3438 187.685 40.4896 187.685 40.6562C187.685 40.9062 187.748 41.125 187.873 41.3125C187.998 41.4792 188.154 41.625 188.342 41.75C188.529 41.8542 188.717 41.9375 188.904 42C189.112 42.0417 189.289 42.0625 189.435 42.0625C189.435 41.4792 189.342 41 189.154 40.625C188.967 40.2292 188.696 40.0312 188.342 40.0312ZM215.217 62.4688C215.946 62.4688 216.685 62.2812 217.435 61.9062C218.206 61.5312 218.977 60.9479 219.748 60.1562C220.539 59.3646 221.352 58.3438 222.185 57.0938C223.019 55.8229 223.873 54.3125 224.748 52.5625L225.06 51.9062L226.342 52.875L226.029 53.5312C224.904 55.7604 223.779 57.6667 222.654 59.25C221.55 60.8333 220.456 62.125 219.373 63.125C218.31 64.125 217.258 64.8542 216.217 65.3125C215.175 65.7708 214.175 66 213.217 66C211.862 66 210.654 65.7188 209.592 65.1562C208.529 64.5938 207.633 63.8333 206.904 62.875C206.175 61.8958 205.623 60.7708 205.248 59.5C204.852 58.2083 204.654 56.8542 204.654 55.4375C204.654 53.1875 204.967 51.1458 205.592 49.3125C206.196 47.4583 207.008 45.875 208.029 44.5625C209.071 43.25 210.248 42.2292 211.56 41.5C212.873 40.7708 214.237 40.4062 215.654 40.4062C217.092 40.4062 218.185 40.7708 218.935 41.5C219.706 42.2292 220.092 43.1458 220.092 44.25C220.092 45.3125 219.789 46.3125 219.185 47.25C218.581 48.1667 217.758 49.0729 216.717 49.9688C215.696 50.8438 214.508 51.7188 213.154 52.5938C211.8 53.4479 210.373 54.3333 208.873 55.25C209.019 56.3333 209.269 57.3229 209.623 58.2188C209.977 59.0938 210.425 59.8542 210.967 60.5C211.508 61.125 212.133 61.6146 212.842 61.9688C213.55 62.3021 214.342 62.4688 215.217 62.4688ZM216.185 45.1875C216.185 44.3542 215.956 43.6979 215.498 43.2188C215.06 42.7396 214.519 42.5 213.873 42.5C213.331 42.5 212.758 42.6979 212.154 43.0938C211.55 43.4688 210.998 44.0833 210.498 44.9375C209.998 45.7708 209.581 46.8438 209.248 48.1562C208.914 49.4688 208.748 51.0625 208.748 52.9375V53.6562C209.456 53.2812 210.237 52.7917 211.092 52.1875C211.967 51.5625 212.779 50.875 213.529 50.125C214.279 49.375 214.904 48.5833 215.404 47.75C215.925 46.8958 216.185 46.0417 216.185 45.1875ZM231.404 66C230.133 66 229.029 65.7292 228.092 65.1875C227.175 64.6458 226.414 63.9167 225.81 63C225.206 62.0625 224.758 60.9896 224.467 59.7812C224.175 58.5729 224.029 57.2917 224.029 55.9375C224.029 54.75 224.144 53.5417 224.373 52.3125C224.602 51.0833 224.925 49.8958 225.342 48.75C225.779 47.5833 226.321 46.5 226.967 45.5C227.612 44.4792 228.352 43.5938 229.185 42.8438C230.019 42.0938 230.946 41.5 231.967 41.0625C233.008 40.625 234.123 40.4062 235.31 40.4062C236.664 40.4062 237.81 40.7083 238.748 41.3125C239.706 41.9167 240.477 42.6562 241.06 43.5312C241.081 39.5938 241.279 36.1146 241.654 33.0938C242.029 30.0729 242.55 27.5417 243.217 25.5C243.904 23.4583 244.717 21.9167 245.654 20.875C246.592 19.8125 247.623 19.2812 248.748 19.2812C249.144 19.2812 249.498 19.3333 249.81 19.4375C250.144 19.5208 250.414 19.6875 250.623 19.9375C250.852 20.1875 251.019 20.5312 251.123 20.9688C251.248 21.3854 251.31 21.9271 251.31 22.5938C251.31 23.9688 251.175 25.5521 250.904 27.3438C250.633 29.1146 250.248 31.0521 249.748 33.1562C249.248 35.2396 248.633 37.4688 247.904 39.8438C247.196 42.1979 246.404 44.6458 245.529 47.1875C245.55 49.4167 245.581 51.3438 245.623 52.9688C245.664 54.5938 245.717 55.9688 245.779 57.0938C245.862 58.2188 245.956 59.1354 246.06 59.8438C246.185 60.5521 246.321 61.1042 246.467 61.5C246.633 61.875 246.821 62.1354 247.029 62.2812C247.258 62.4062 247.508 62.4688 247.779 62.4688C248.258 62.4688 248.737 62.2604 249.217 61.8438C249.717 61.4062 250.248 60.7708 250.81 59.9375C251.373 59.0833 251.977 58.0417 252.623 56.8125C253.289 55.5833 254.019 54.1667 254.81 52.5625L255.154 51.9062L256.435 52.875L256.092 53.5312C254.883 55.9688 253.821 57.9896 252.904 59.5938C251.987 61.1771 251.144 62.4479 250.373 63.4062C249.623 64.3646 248.904 65.0417 248.217 65.4375C247.529 65.8125 246.81 66 246.06 66C245.331 66 244.696 65.8229 244.154 65.4688C243.633 65.0938 243.185 64.5208 242.81 63.75C242.435 62.9583 242.133 61.9583 241.904 60.75C241.675 59.5208 241.498 58.0521 241.373 56.3438C240.644 57.8021 239.894 59.125 239.123 60.3125C238.352 61.5 237.55 62.5208 236.717 63.375C235.904 64.2083 235.05 64.8542 234.154 65.3125C233.258 65.7708 232.342 66 231.404 66ZM235.935 42C234.789 42 233.789 42.3542 232.935 43.0625C232.081 43.75 231.373 44.6562 230.81 45.7812C230.248 46.8854 229.831 48.1354 229.56 49.5312C229.289 50.9271 229.154 52.3229 229.154 53.7188C229.154 54.8646 229.237 55.9688 229.404 57.0312C229.592 58.0729 229.862 59 230.217 59.8125C230.592 60.625 231.039 61.2708 231.56 61.75C232.081 62.2292 232.685 62.4688 233.373 62.4688C234.039 62.4688 234.685 62.3021 235.31 61.9688C235.956 61.6354 236.592 61.1042 237.217 60.375C237.842 59.625 238.477 58.6667 239.123 57.5C239.769 56.3125 240.456 54.875 241.185 53.1875C241.144 52.1875 241.112 51.125 241.092 50C241.071 48.8542 241.06 47.6354 241.06 46.3438C240.602 44.9896 239.904 43.9271 238.967 43.1562C238.05 42.3854 237.039 42 235.935 42ZM249.06 23.75C249.06 22.7917 248.946 22.125 248.717 21.75C248.508 21.375 248.258 21.1875 247.967 21.1875C247.467 21.1875 247.06 21.6771 246.748 22.6562C246.435 23.6146 246.185 24.9167 245.998 26.5625C245.831 28.2083 245.706 30.1146 245.623 32.2812C245.56 34.4479 245.529 36.7292 245.529 39.125V42.5625C246.175 40.4583 246.727 38.5625 247.185 36.875C247.644 35.1875 248.008 33.6146 248.279 32.1562C248.55 30.6979 248.748 29.2917 248.873 27.9375C248.998 26.5833 249.06 25.1875 249.06 23.75Z" fill="white"/>
<path d="M121.1 78.925H121V91.2C121 91.8167 121.142 92.3083 121.425 92.675C121.725 93.025 122.109 93.2 122.575 93.2H123.475V94H117.525V93.2H118.425C118.909 93.2 119.292 93.025 119.575 92.675C119.859 92.3083 120 91.8167 120 91.2V77.675C119.984 77.4417 119.925 77.275 119.825 77.175C119.725 77.0583 119.559 77 119.325 77H117.525V76.2H122.25L130.925 90.15V79C130.925 78.3833 130.784 77.9 130.5 77.55C130.217 77.1833 129.842 77 129.375 77H128.475V76.2H134.425V77H133.525C133.059 77 132.675 77.1833 132.375 77.55C132.075 77.9 131.925 78.3833 131.925 79V94.45H130.925L121.1 78.925ZM139.614 94.3C138.73 94.3 137.964 94.0833 137.314 93.65C136.68 93.2167 136.364 92.45 136.364 91.35C136.364 90.5 136.58 89.8333 137.014 89.35C137.447 88.8667 137.947 88.525 138.514 88.325C139.097 88.1083 139.797 87.925 140.614 87.775L142.914 87.35V85.225C142.914 83.675 142.139 82.9 140.589 82.9C140.022 82.9 139.505 83.05 139.039 83.35C138.572 83.6333 138.339 83.9583 138.339 84.325C138.339 84.4917 138.364 84.6167 138.414 84.7C138.447 84.75 138.497 84.8 138.564 84.85C138.647 84.9 138.722 84.9333 138.789 84.95C139.089 85.0333 139.314 85.15 139.464 85.3C139.63 85.45 139.714 85.6583 139.714 85.925C139.714 86.275 139.605 86.525 139.389 86.675C139.189 86.825 138.93 86.9 138.614 86.9C138.247 86.9 137.914 86.7583 137.614 86.475C137.314 86.1917 137.164 85.7833 137.164 85.25C137.164 84.6333 137.33 84.1 137.664 83.65C138.014 83.2 138.455 82.8667 138.989 82.65C139.539 82.4167 140.097 82.3 140.664 82.3C141.764 82.3 142.714 82.5917 143.514 83.175C144.314 83.7417 144.714 84.6333 144.714 85.85V92C144.714 92.8333 144.972 93.25 145.489 93.25C145.905 93.25 146.205 93.0083 146.389 92.525C146.572 92.0417 146.664 91.45 146.664 90.75H147.114C147.114 91.75 146.964 92.5917 146.664 93.275C146.38 93.9583 145.864 94.3 145.114 94.3C144.397 94.3 143.855 94.0917 143.489 93.675C143.139 93.2417 142.947 92.65 142.914 91.9L142.789 91.85C142.539 92.4333 142.13 92.9917 141.564 93.525C141.014 94.0417 140.364 94.3 139.614 94.3ZM140.014 93.4C140.764 93.4 141.347 93.1083 141.764 92.525C142.197 91.925 142.58 91.1667 142.914 90.25V87.875L140.739 88.35C139.939 88.5167 139.355 88.85 138.989 89.35C138.639 89.8333 138.464 90.525 138.464 91.425C138.464 92.1917 138.622 92.7167 138.939 93C139.255 93.2667 139.614 93.4 140.014 93.4ZM150.867 79.5C150.501 79.5 150.192 79.375 149.942 79.125C149.692 78.875 149.567 78.5667 149.567 78.2C149.567 77.8167 149.692 77.5083 149.942 77.275C150.192 77.025 150.501 76.9 150.867 76.9C151.251 76.9 151.559 77.025 151.792 77.275C152.042 77.5083 152.167 77.8167 152.167 78.2C152.167 78.5667 152.042 78.875 151.792 79.125C151.559 79.375 151.251 79.5 150.867 79.5ZM148.517 93.4H149.567C149.767 93.4 149.909 93.3583 149.992 93.275C150.076 93.1917 150.117 93.05 150.117 92.85V83.75C150.117 83.55 150.076 83.4083 149.992 83.325C149.909 83.2417 149.767 83.2 149.567 83.2H148.517V82.6H151.917V92.85C151.917 93.05 151.959 93.1917 152.042 93.275C152.126 93.3583 152.267 93.4 152.467 93.4H153.517V94H148.517V93.4ZM155.005 93.4H156.305C156.505 93.4 156.647 93.3583 156.73 93.275C156.814 93.1917 156.855 93.05 156.855 92.85V77.35C156.855 77.15 156.814 77.0083 156.73 76.925C156.647 76.8417 156.505 76.8 156.305 76.8H155.005V76.2H158.655V92.85C158.655 93.05 158.697 93.1917 158.78 93.275C158.864 93.3583 159.005 93.4 159.205 93.4H160.505V94H155.005V93.4ZM162.544 89.35H162.994L163.919 91.325C164.819 92.9083 165.985 93.7 167.419 93.7C168.185 93.7 168.752 93.5167 169.119 93.15C169.502 92.7667 169.694 92.25 169.694 91.6C169.694 91.2167 169.544 90.875 169.244 90.575C168.96 90.2583 168.577 90.0083 168.094 89.825L165.244 88.675C164.344 88.3083 163.635 87.8667 163.119 87.35C162.602 86.8333 162.344 86.175 162.344 85.375C162.344 84.3583 162.66 83.5917 163.294 83.075C163.927 82.5583 164.727 82.3 165.694 82.3C166.177 82.3 166.627 82.3833 167.044 82.55C167.477 82.7 167.835 82.8833 168.119 83.1C168.485 83.3667 168.76 83.5 168.944 83.5C169.16 83.5 169.294 83.35 169.344 83.05L169.394 82.55H169.844V86.35H169.394L169.044 85.475C168.66 84.525 168.152 83.8583 167.519 83.475C166.902 83.0917 166.285 82.9 165.669 82.9C165.052 82.9 164.544 83.0583 164.144 83.375C163.744 83.675 163.544 84.1 163.544 84.65C163.544 85.1333 163.735 85.5333 164.119 85.85C164.519 86.15 165.06 86.4417 165.744 86.725L168.444 87.85C169.244 88.1833 169.844 88.5917 170.244 89.075C170.644 89.5417 170.844 90.2 170.844 91.05C170.844 92.1667 170.527 92.9917 169.894 93.525C169.26 94.0417 168.427 94.3 167.394 94.3C166.777 94.3 166.277 94.2167 165.894 94.05C165.51 93.8833 165.135 93.6583 164.769 93.375C164.619 93.2583 164.469 93.1583 164.319 93.075C164.169 92.9917 164.035 92.95 163.919 92.95C163.519 92.95 163.244 93.2333 163.094 93.8L162.994 94.3H162.544V89.35Z" fill="white"/>
</svg>
